<svg width="30" height="35" viewBox="0 0 30 35" fill="none" xmlns="http://www.w3.org/2000/svg">
<path fill-rule="evenodd" clip-rule="evenodd" d="M19.2803 15.7803C18.9874 16.0732 18.5126 16.0732 18.2197 15.7803L14.75 12.3107L11.2803 15.7803C10.9874 16.0732 10.5126 16.0732 10.2197 15.7803C9.92678 15.4874 9.92678 15.0126 10.2197 14.7197L14.2197 10.7197C14.5126 10.4268 14.9874 10.4268 15.2803 10.7197L19.2803 14.7197C19.5732 15.0126 19.5732 15.4874 19.2803 15.7803Z" fill="black"/>
<path fill-rule="evenodd" clip-rule="evenodd" d="M19.2803 19.2197C19.5732 19.5126 19.5732 19.9874 19.2803 20.2803L15.2803 24.2803C14.9874 24.5732 14.5126 24.5732 14.2197 24.2803L10.2197 20.2803C9.92678 19.9874 9.92678 19.5126 10.2197 19.2197C10.5126 18.9268 10.9874 18.9268 11.2803 19.2197L14.75 22.6893L18.2197 19.2197C18.5126 18.9268 18.9874 18.9268 19.2803 19.2197Z" fill="black"/>
</svg>
