<svg width="30" height="30" viewBox="0 0 30 30" fill="none" xmlns="http://www.w3.org/2000/svg">
<circle cx="15" cy="15" r="13.5" fill="#463FC4" stroke="#8189E5" stroke-width="3"/>
<path d="M12.586 12.0816C12.412 12.0816 12.2646 12.1425 12.1438 12.2644C12.0229 12.3862 11.9625 12.5341 11.9625 12.7081C11.9625 12.8821 12.0234 13.0296 12.1452 13.1504C12.267 13.2712 12.415 13.3316 12.589 13.3316C12.763 13.3316 12.9104 13.2707 13.0312 13.1489C13.1521 13.0271 13.2125 12.8792 13.2125 12.7052C13.2125 12.5311 13.1516 12.3837 13.0298 12.2629C12.908 12.1421 12.76 12.0816 12.586 12.0816ZM12.586 17.2566C12.412 17.2566 12.2646 17.3175 12.1438 17.4394C12.0229 17.5612 11.9625 17.7091 11.9625 17.8831C11.9625 18.0571 12.0234 18.2046 12.1452 18.3254C12.267 18.4462 12.415 18.5066 12.589 18.5066C12.763 18.5066 12.9104 18.4457 13.0312 18.3239C13.1521 18.2021 13.2125 18.0542 13.2125 17.8802C13.2125 17.7061 13.1516 17.5587 13.0298 17.4379C12.908 17.3171 12.76 17.2566 12.586 17.2566ZM10.925 10.5566H19.0625C19.1958 10.5566 19.3021 10.5962 19.3813 10.6754C19.4604 10.7546 19.5 10.8621 19.5 10.9981V14.3566C19.5 14.5018 19.4604 14.6236 19.3813 14.7218C19.3021 14.82 19.1958 14.8691 19.0625 14.8691H10.925C10.8 14.8691 10.6979 14.82 10.6187 14.7218C10.5396 14.6236 10.5 14.5018 10.5 14.3566V10.9981C10.5 10.8621 10.5396 10.7546 10.6187 10.6754C10.6979 10.5962 10.8 10.5566 10.925 10.5566ZM10.925 15.7191H19.0125C19.1375 15.7191 19.25 15.7712 19.35 15.8754C19.45 15.9796 19.5 16.0984 19.5 16.232V19.5316C19.5 19.6983 19.45 19.8254 19.35 19.9129C19.25 20.0004 19.1375 20.0441 19.0125 20.0441H10.9875C10.8542 20.0441 10.7396 20.0004 10.6437 19.9129C10.5479 19.8254 10.5 19.6983 10.5 19.5316V16.232C10.5 16.0984 10.5396 15.9796 10.6187 15.8754C10.6979 15.7712 10.8 15.7191 10.925 15.7191Z" fill="#8189E5"/>
</svg>
