<svg width="22" height="22" viewBox="0 0 22 22" fill="none" xmlns="http://www.w3.org/2000/svg">
<g id="dns_FILL1_wght400_GRAD0_opsz48 1">
<path id="Vector" d="M6.57438 5.56829C6.25535 5.56829 5.98507 5.67996 5.76354 5.90329C5.54201 6.1266 5.43125 6.39779 5.43125 6.71683C5.43125 7.03586 5.54292 7.30614 5.76625 7.52767C5.98956 7.7492 6.26074 7.85996 6.57979 7.85996C6.89882 7.85996 7.1691 7.7483 7.39062 7.52497C7.61215 7.30165 7.72292 7.03047 7.72292 6.71142C7.72292 6.39239 7.61125 6.12211 7.38792 5.90059C7.16461 5.67906 6.89342 5.56829 6.57438 5.56829ZM6.57438 15.0558C6.25535 15.0558 5.98507 15.1675 5.76354 15.3908C5.54201 15.6141 5.43125 15.8853 5.43125 16.2043C5.43125 16.5234 5.54292 16.7936 5.76625 17.0152C5.98956 17.2367 6.26074 17.3475 6.57979 17.3475C6.89882 17.3475 7.1691 17.2358 7.39062 17.0125C7.61215 16.7891 7.72292 16.518 7.72292 16.1989C7.72292 15.8799 7.61125 15.6096 7.38792 15.3881C7.16461 15.1666 6.89342 15.0558 6.57438 15.0558ZM3.52917 2.77246H18.4479C18.6924 2.77246 18.8872 2.84503 19.0323 2.99017C19.1774 3.13531 19.25 3.33249 19.25 3.58172V9.73913C19.25 10.0053 19.1774 10.2285 19.0323 10.4086C18.8872 10.5887 18.6924 10.6787 18.4479 10.6787H3.52917C3.3 10.6787 3.11285 10.5887 2.96771 10.4086C2.82257 10.2285 2.75 10.0053 2.75 9.73913V3.58172C2.75 3.33249 2.82257 3.13531 2.96771 2.99017C3.11285 2.84503 3.3 2.77246 3.52917 2.77246ZM3.52917 12.237H18.3563C18.5854 12.237 18.7917 12.3325 18.975 12.5235C19.1583 12.7145 19.25 12.9324 19.25 13.1772V19.2266C19.25 19.5322 19.1583 19.7652 18.975 19.9256C18.7917 20.086 18.5854 20.1662 18.3563 20.1662H3.64375C3.39931 20.1662 3.18924 20.086 3.01354 19.9256C2.83785 19.7652 2.75 19.5322 2.75 19.2266V13.1772C2.75 12.9324 2.82257 12.7145 2.96771 12.5235C3.11285 12.3325 3.3 12.237 3.52917 12.237Z" fill="#8189E5"/>
</g>
</svg>
