<svg width="50" height="51" viewBox="0 0 50 51" fill="none" xmlns="http://www.w3.org/2000/svg">
<rect y="0.5" width="50" height="50" rx="25" fill="url(#paint0_linear_1224_376)" fill-opacity="0.8"/>
<g clip-path="url(#clip0_1224_376)" filter="url(#filter0_i_1224_376)">
<path fill-rule="evenodd" clip-rule="evenodd" d="M24.7167 10.6626C16.7122 10.6626 10.1631 17.2176 10.1631 25.2292C10.1631 33.2408 16.7122 39.7957 24.7167 39.7957C32.7212 39.7957 39.2704 33.2408 39.2704 25.2292C39.2704 17.2176 32.794 10.6626 24.7167 10.6626ZM31.4114 31.7113C31.1203 32.1483 30.6109 32.294 30.1743 32.0026C26.7542 29.8905 22.4609 29.4535 17.3671 30.6188C16.8578 30.7645 16.4211 30.4003 16.2756 29.9633C16.1301 29.4535 16.4939 29.0165 16.9305 28.8708C22.4609 27.6327 27.2636 28.1425 31.0475 30.4731C31.5569 30.6916 31.6297 31.2743 31.4114 31.7113ZM33.1578 27.7055C32.794 28.2153 32.1391 28.4338 31.6297 28.0696C27.7002 25.6662 21.7332 24.9378 17.1488 26.3945C16.5667 26.5402 15.9118 26.2488 15.7662 25.6662C15.6207 25.0835 15.9118 24.428 16.4939 24.2823C21.806 22.68 28.3551 23.4812 32.8668 26.2488C33.3034 26.4673 33.5217 27.1957 33.1578 27.7055ZM33.3034 23.6268C28.6462 20.8592 20.86 20.5679 16.4211 21.9517C15.6935 22.1702 14.9658 21.7332 14.7475 21.0777C14.5292 20.3494 14.9658 19.621 15.6207 19.4025C20.7872 17.873 29.3011 18.1644 34.686 21.369C35.3409 21.7332 35.5592 22.6072 35.1953 23.2627C34.8315 23.7725 33.9583 23.991 33.3034 23.6268Z" fill="white"/>
</g>
<defs>
<filter id="filter0_i_1224_376" x="9.48535" y="9.98511" width="30.4883" height="30.9883" filterUnits="userSpaceOnUse" color-interpolation-filters="sRGB">
<feFlood flood-opacity="0" result="BackgroundImageFix"/>
<feBlend mode="normal" in="SourceGraphic" in2="BackgroundImageFix" result="shape"/>
<feColorMatrix in="SourceAlpha" type="matrix" values="0 0 0 0 0 0 0 0 0 0 0 0 0 0 0 0 0 0 127 0" result="hardAlpha"/>
<feOffset dy="0.5"/>
<feGaussianBlur stdDeviation="1.25"/>
<feComposite in2="hardAlpha" operator="arithmetic" k2="-1" k3="1"/>
<feColorMatrix type="matrix" values="0 0 0 0 0 0 0 0 0 0 0 0 0 0 0 0 0 0 0.1 0"/>
<feBlend mode="normal" in2="shape" result="effect1_innerShadow_1224_376"/>
</filter>
<linearGradient id="paint0_linear_1224_376" x1="28.4556" y1="51.9911" x2="5.08136" y2="0.499999" gradientUnits="userSpaceOnUse">
<stop stop-color="#00D95F"/>
<stop offset="1" stop-color="#10BC4C"/>
</linearGradient>
<clipPath id="clip0_1224_376">
<rect width="30.4882" height="30.4882" fill="white" transform="translate(9.48535 9.98511)"/>
</clipPath>
</defs>
</svg>
