<svg width="30" height="30" viewBox="0 0 30 30" fill="none" xmlns="http://www.w3.org/2000/svg">
<circle cx="15" cy="15" r="13.5" fill="#B55805" stroke="#F5DC7A" stroke-width="3"/>
<path d="M10.75 20.1501C10.55 20.1501 10.375 20.0751 10.225 19.9251C10.075 19.7751 10 19.6001 10 19.4001V13.9001C10 13.7001 10.075 13.5251 10.225 13.3751C10.375 13.2251 10.55 13.1501 10.75 13.1501H19.25C19.45 13.1501 19.625 13.2251 19.775 13.3751C19.925 13.5251 20 13.7001 20 13.9001V19.4001C20 19.6001 19.925 19.7751 19.775 19.9251C19.625 20.0751 19.45 20.1501 19.25 20.1501H10.75ZM14.0875 18.5126L16.85 16.6501L14.0875 14.8001V18.5126ZM10.8625 12.4001V11.6501H19.1375V12.4001H10.8625ZM12.5 10.9001V10.1501H17.5V10.9001H12.5Z" fill="#F5DC7A"/>
</svg>
