<svg width="50" height="51" viewBox="0 0 50 51" fill="none" xmlns="http://www.w3.org/2000/svg">
<rect y="0.5" width="50" height="50" rx="25" fill="url(#paint0_linear_1224_703)" fill-opacity="0.8"/>
<g filter="url(#filter0_i_1224_703)">
<path d="M28.1857 29.9721C28.1391 29.5516 27.999 29.2479 27.7189 28.9675C27.1937 28.4185 26.2717 28.0564 25.1863 28.0564C24.101 28.0564 23.179 28.4068 22.6538 28.9675C22.3853 29.2596 22.2336 29.5516 22.1869 29.9721C22.0936 30.7898 22.1519 31.4907 22.2453 32.6237C22.3387 33.6984 22.5137 35.1352 22.7355 36.5837C22.8989 37.6233 23.0272 38.184 23.144 38.5812C23.3424 39.2353 24.0543 39.796 25.1863 39.796C26.3184 39.796 27.042 39.2236 27.2287 38.5812C27.3454 38.184 27.4738 37.6233 27.6372 36.5837C27.859 35.1235 28.034 33.6984 28.1274 32.6237C28.2324 31.4907 28.2791 30.7898 28.1857 29.9721Z" fill="white"/>
<path d="M28.0555 24.0144C28.0555 25.6031 26.7717 26.888 25.1845 26.888C23.5973 26.888 22.3135 25.6031 22.3135 24.0144C22.3135 22.4258 23.5973 21.1409 25.1845 21.1409C26.7717 21.1409 28.0555 22.4375 28.0555 24.0144Z" fill="white"/>
<path d="M25.1513 12.6953C18.4523 12.7187 12.967 18.1621 12.8736 24.8671C12.8036 30.2989 16.2698 34.948 21.1132 36.6535C21.2299 36.7002 21.3466 36.595 21.3349 36.4782C21.2766 36.0577 21.2066 35.6372 21.1599 35.2167C21.1365 35.0648 21.0432 34.948 20.9148 34.8779C17.0868 33.2075 14.4141 29.3644 14.4608 24.9139C14.5192 19.0733 19.2809 14.319 25.1046 14.2723C31.0684 14.2256 35.9351 19.0616 35.9351 25.019C35.9351 29.4228 33.2742 33.2075 29.4812 34.8779C29.3411 34.9363 29.2478 35.0648 29.2361 35.2167C29.1777 35.6372 29.1194 36.0577 29.061 36.4782C29.0377 36.6067 29.1661 36.7002 29.2828 36.6535C34.0795 34.9714 37.5224 30.3923 37.5224 25.019C37.499 18.2205 31.9554 12.6836 25.1513 12.6953Z" fill="white"/>
<path d="M24.8694 16.7836C20.5046 16.9472 17.0033 20.5567 16.945 24.9254C16.9099 27.799 18.3455 30.3455 20.5512 31.8524C20.6563 31.9225 20.808 31.8407 20.808 31.7122C20.773 31.2099 20.773 30.766 20.7963 30.2988C20.808 30.1469 20.7496 30.0067 20.6329 29.9016C19.2908 28.64 18.4738 26.8411 18.5205 24.8553C18.6139 21.351 21.4266 18.5008 24.9278 18.3606C28.7325 18.2087 31.8603 21.2692 31.8603 25.0306C31.8603 26.9463 31.0433 28.6751 29.7479 29.9016C29.6428 30.0067 29.5845 30.1469 29.5845 30.2988C29.6078 30.7543 29.5961 31.1982 29.5728 31.7005C29.5611 31.829 29.7128 31.9225 29.8295 31.8407C32.0003 30.3572 33.4358 27.8457 33.4358 25.0189C33.4475 20.3698 29.5611 16.5967 24.8694 16.7836Z" fill="white"/>
</g>
<defs>
<filter id="filter0_i_1224_703" x="10.1626" y="10.6627" width="30.4883" height="30.9882" filterUnits="userSpaceOnUse" color-interpolation-filters="sRGB">
<feFlood flood-opacity="0" result="BackgroundImageFix"/>
<feBlend mode="normal" in="SourceGraphic" in2="BackgroundImageFix" result="shape"/>
<feColorMatrix in="SourceAlpha" type="matrix" values="0 0 0 0 0 0 0 0 0 0 0 0 0 0 0 0 0 0 127 0" result="hardAlpha"/>
<feOffset dy="0.5"/>
<feGaussianBlur stdDeviation="1.25"/>
<feComposite in2="hardAlpha" operator="arithmetic" k2="-1" k3="1"/>
<feColorMatrix type="matrix" values="0 0 0 0 0 0 0 0 0 0 0 0 0 0 0 0 0 0 0.1 0"/>
<feBlend mode="normal" in2="shape" result="effect1_innerShadow_1224_703"/>
</filter>
<linearGradient id="paint0_linear_1224_703" x1="28.4556" y1="51.9911" x2="5.08136" y2="0.499999" gradientUnits="userSpaceOnUse">
<stop stop-color="#832BC1"/>
<stop offset="1" stop-color="#F452FF"/>
</linearGradient>
</defs>
</svg>
