<svg width="50" height="51" viewBox="0 0 50 51" fill="none" xmlns="http://www.w3.org/2000/svg">
<rect y="0.5" width="50" height="50" rx="25" fill="url(#paint0_linear_1224_1584)" fill-opacity="0.8"/>
<g filter="url(#filter0_i_1224_1584)">
<path fill-rule="evenodd" clip-rule="evenodd" d="M30.6256 21.8105C32.438 23.1001 34.6085 23.7891 36.8322 23.7808V19.3698C36.395 19.371 35.959 19.3242 35.5321 19.2301V22.7442C33.3034 22.7482 31.1297 22.0513 29.3181 20.7519V29.8238C29.3127 31.3125 28.9048 32.7719 28.1378 34.0473C27.3708 35.3227 26.2732 36.3666 24.9615 37.0682C23.6497 37.7699 22.1728 38.1032 20.6871 38.0328C19.2015 37.9623 17.7626 37.4908 16.5229 36.6682C17.6695 37.8294 19.1346 38.6239 20.7327 38.9511C22.3307 39.2783 23.9898 39.1235 25.4999 38.5063C27.0099 37.8892 28.3031 36.8374 29.2155 35.4841C30.128 34.1309 30.6187 32.5371 30.6256 30.9045V21.8105ZM32.2341 17.3113C31.3125 16.3115 30.7469 15.0346 30.6256 13.6796V13.1062H29.3916C29.5441 13.9675 29.8761 14.787 30.3658 15.5115C30.8555 16.236 31.4921 16.8492 32.2341 17.3113ZM19.3802 33.1762C18.9525 32.6164 18.6904 31.9477 18.6237 31.2462C18.557 30.5446 18.6885 29.8385 19.003 29.208C19.3176 28.5775 19.8027 28.0481 20.403 27.68C21.0034 27.3119 21.695 27.1199 22.399 27.1258C22.7877 27.1257 23.1742 27.1852 23.5449 27.3022V22.7442C23.1115 22.6868 22.6745 22.6622 22.2374 22.6707V26.2142C21.3348 25.9286 20.3579 25.9935 19.5009 26.3961C18.6439 26.7986 17.9697 27.5093 17.6124 28.3867C17.2551 29.2641 17.2409 30.2439 17.5725 31.1314C17.9041 32.0188 18.5573 32.7488 19.4022 33.1762H19.3802Z" fill="#EE1D52"/>
<path fill-rule="evenodd" clip-rule="evenodd" d="M29.3177 20.7225C31.1293 22.0218 33.303 22.7188 35.5317 22.7148V19.2007C34.2619 18.932 33.1083 18.2711 32.2337 17.3113C31.4917 16.8492 30.8551 16.236 30.3654 15.5115C29.8756 14.787 29.5437 13.9675 29.3912 13.1062H26.1446V30.9045C26.1416 31.6923 25.8922 32.4594 25.4313 33.0981C24.9705 33.7368 24.3214 34.215 23.5752 34.4656C22.8289 34.7162 22.023 34.7266 21.2706 34.4953C20.5181 34.2641 19.8569 33.8028 19.3798 33.1762C18.6236 32.7943 18.0181 32.1686 17.6608 31.4C17.3035 30.6314 17.2154 29.7647 17.4106 28.9399C17.6058 28.115 18.073 27.38 18.7368 26.8534C19.4005 26.3269 20.2222 26.0395 21.0692 26.0377C21.4578 26.039 21.844 26.0985 22.215 26.2142V22.6707C20.612 22.7092 19.0551 23.2153 17.7354 24.127C16.4158 25.0386 15.3908 26.3161 14.7863 27.8026C14.1818 29.289 14.024 30.9198 14.3325 32.4947C14.6409 34.0697 15.4021 35.5202 16.5225 36.6682C17.7624 37.4967 19.2036 37.9731 20.6925 38.0466C22.1815 38.1201 23.6625 37.788 24.9778 37.0856C26.2932 36.3833 27.3935 35.337 28.1616 34.0582C28.9297 32.7794 29.3369 31.316 29.3398 29.8238L29.3177 20.7225Z" fill="white"/>
<path fill-rule="evenodd" clip-rule="evenodd" d="M35.532 19.2004V18.252C34.3658 18.257 33.2222 17.9307 32.234 17.311C33.1064 18.2736 34.2609 18.935 35.532 19.2004ZM29.3915 13.1059C29.3915 12.9368 29.34 12.7603 29.318 12.5913V12.0178H24.8375V29.8235C24.8336 30.8205 24.4347 31.7753 23.7282 32.4782C23.0218 33.1811 22.0656 33.5748 21.0694 33.5728C20.4829 33.5758 19.904 33.4398 19.3801 33.1759C19.8572 33.8024 20.5184 34.2637 21.2709 34.495C22.0233 34.7262 22.8292 34.7158 23.5754 34.4652C24.3217 34.2147 24.9708 33.7365 25.4316 33.0978C25.8925 32.4591 26.1419 31.692 26.1449 30.9042V13.1059H29.3915ZM22.2153 22.663V21.6558C20.3716 21.4051 18.4974 21.7869 16.8982 22.7388C15.299 23.6907 14.069 25.1566 13.4088 26.8978C12.7486 28.6389 12.697 30.5525 13.2625 32.3267C13.828 34.1009 14.9772 35.6311 16.5228 36.6679C15.4108 35.5172 14.6578 34.0672 14.3557 32.4952C14.0535 30.9231 14.2154 29.297 14.8215 27.8155C15.4276 26.3341 16.4516 25.0613 17.7686 24.1528C19.0855 23.2443 20.6384 22.7394 22.2373 22.6998L22.2153 22.663Z" fill="#69C9D0"/>
</g>
<defs>
<filter id="filter0_i_1224_1584" x="9.48535" y="9.98523" width="30.4883" height="30.9882" filterUnits="userSpaceOnUse" color-interpolation-filters="sRGB">
<feFlood flood-opacity="0" result="BackgroundImageFix"/>
<feBlend mode="normal" in="SourceGraphic" in2="BackgroundImageFix" result="shape"/>
<feColorMatrix in="SourceAlpha" type="matrix" values="0 0 0 0 0 0 0 0 0 0 0 0 0 0 0 0 0 0 127 0" result="hardAlpha"/>
<feOffset dy="0.5"/>
<feGaussianBlur stdDeviation="1.25"/>
<feComposite in2="hardAlpha" operator="arithmetic" k2="-1" k3="1"/>
<feColorMatrix type="matrix" values="0 0 0 0 0 0 0 0 0 0 0 0 0 0 0 0 0 0 0.1 0"/>
<feBlend mode="normal" in2="shape" result="effect1_innerShadow_1224_1584"/>
</filter>
<linearGradient id="paint0_linear_1224_1584" x1="1.01627" y1="0.5" x2="44.0385" y2="54.3624" gradientUnits="userSpaceOnUse">
<stop/>
<stop offset="1" stop-color="#323232"/>
</linearGradient>
</defs>
</svg>
