<svg width="18" height="18" viewBox="0 0 18 18" fill="none" xmlns="http://www.w3.org/2000/svg">
<g id="Group 4">
<path id="Rectangle 3950" d="M5 17C3.11438 17 2.17157 17 1.58579 16.4142C1 15.8284 1 14.8856 1 13L1 5C0.999999 3.11438 0.999999 2.17157 1.58579 1.58579C2.17157 1 3.11438 1 5 1L5.47059 1C7.35621 1 8.29902 1 8.8848 1.58579C9.47059 2.17157 9.47059 3.11438 9.47059 5L9.47059 13C9.47059 14.8856 9.47059 15.8284 8.8848 16.4142C8.29902 17 7.35621 17 5.47059 17L5 17Z" stroke="black" stroke-opacity="0.6" stroke-width="2"/>
<path id="Rectangle 3952" d="M11.353 2.41142V2.41142C12.3926 2.41142 13.2354 3.25418 13.2354 4.29377L13.2354 13.7055C13.2354 14.7451 12.3926 15.5879 11.353 15.5879V15.5879" stroke="black" stroke-opacity="0.6" stroke-width="2"/>
<path id="Rectangle 3951" d="M15.1176 5.23524V5.23524C16.1572 5.23524 17 6.07799 17 7.11759L17 10.8823C17 11.9219 16.1572 12.7646 15.1176 12.7646V12.7646" stroke="black" stroke-opacity="0.6" stroke-width="2"/>
</g>
</svg>
