<svg width="40" height="40" viewBox="0 0 40 40" fill="none" xmlns="http://www.w3.org/2000/svg">
<circle cx="20" cy="20" r="18.5" fill="#463FC4" stroke="#8189E5" stroke-width="3"/>
<path d="M16.7814 16.1085C16.5493 16.1085 16.3528 16.1897 16.1917 16.3522C16.0306 16.5146 15.95 16.7118 15.95 16.9438C15.95 17.1759 16.0312 17.3724 16.1936 17.5335C16.356 17.6946 16.5533 17.7752 16.7853 17.7752C17.0173 17.7752 17.2139 17.694 17.375 17.5316C17.5361 17.3692 17.6167 17.1719 17.6167 16.9399C17.6167 16.7079 17.5355 16.5113 17.373 16.3502C17.2106 16.1891 17.0134 16.1085 16.7814 16.1085ZM16.7814 23.0085C16.5493 23.0085 16.3528 23.0897 16.1917 23.2522C16.0306 23.4146 15.95 23.6118 15.95 23.8438C15.95 24.0758 16.0312 24.2724 16.1936 24.4335C16.356 24.5946 16.5533 24.6752 16.7853 24.6752C17.0173 24.6752 17.2139 24.594 17.375 24.4316C17.5361 24.2692 17.6167 24.0719 17.6167 23.8399C17.6167 23.6079 17.5355 23.4113 17.373 23.2502C17.2106 23.0891 17.0134 23.0085 16.7814 23.0085ZM14.5667 14.0752H25.4167C25.5944 14.0752 25.7361 14.128 25.8417 14.2335C25.9472 14.3391 26 14.4825 26 14.6637V19.1419C26 19.3355 25.9472 19.4978 25.8417 19.6287C25.7361 19.7597 25.5944 19.8252 25.4167 19.8252H14.5667C14.4 19.8252 14.2639 19.7597 14.1583 19.6287C14.0528 19.4978 14 19.3355 14 19.1419V14.6637C14 14.4825 14.0528 14.3391 14.1583 14.2335C14.2639 14.128 14.4 14.0752 14.5667 14.0752ZM14.5667 20.9585H25.35C25.5167 20.9585 25.6667 21.028 25.8 21.1669C25.9333 21.3058 26 21.4642 26 21.6423V26.0419C26 26.2641 25.9333 26.4335 25.8 26.5502C25.6667 26.6669 25.5167 26.7252 25.35 26.7252H14.65C14.4722 26.7252 14.3194 26.6669 14.1917 26.5502C14.0639 26.4335 14 26.2641 14 26.0419V21.6423C14 21.4642 14.0528 21.3058 14.1583 21.1669C14.2639 21.028 14.4 20.9585 14.5667 20.9585Z" fill="#8189E5"/>
</svg>
