<svg width="30" height="30" viewBox="0 0 30 30" fill="none" xmlns="http://www.w3.org/2000/svg">
<circle cx="15" cy="15" r="13.5" fill="#087E74" stroke="#92F3E0" stroke-width="3"/>
<g clip-path="url(#clip0_1138_1942)">
<path d="M15 20.2L13.4875 18.6875H11.25C11.05 18.6875 10.875 18.6125 10.725 18.4625C10.575 18.3125 10.5 18.1375 10.5 17.9375V10.4375C10.5 10.2292 10.575 10.0521 10.725 9.90625C10.875 9.76042 11.05 9.6875 11.25 9.6875H18.75C18.95 9.6875 19.125 9.76042 19.275 9.90625C19.425 10.0521 19.5 10.2292 19.5 10.4375V17.9375C19.5 18.1375 19.425 18.3125 19.275 18.4625C19.125 18.6125 18.95 18.6875 18.75 18.6875H16.5125L15 20.2ZM15.025 14.925C15.5083 14.925 15.9167 14.7583 16.25 14.425C16.5833 14.0917 16.75 13.6833 16.75 13.2C16.75 12.7167 16.5833 12.3083 16.25 11.975C15.9167 11.6417 15.5083 11.475 15.025 11.475C14.5417 11.475 14.1333 11.6417 13.8 11.975C13.4667 12.3083 13.3 12.7167 13.3 13.2C13.3 13.6833 13.4667 14.0917 13.8 14.425C14.1333 14.7583 14.5417 14.925 15.025 14.925ZM15 19.0875L16.15 17.9375H18.75V17.4625C18.25 17.0042 17.6833 16.6312 17.05 16.3437C16.4167 16.0562 15.7333 15.9125 15 15.9125C14.2667 15.9125 13.5833 16.0562 12.95 16.3437C12.3167 16.6312 11.75 17.0042 11.25 17.4625V17.9375H13.85L15 19.0875Z" fill="#92F3E0"/>
</g>
<defs>
<clipPath id="clip0_1138_1942">
<rect width="12" height="12" fill="white" transform="translate(9 8.7002)"/>
</clipPath>
</defs>
</svg>
