<svg width="116" height="117" viewBox="0 0 116 117" fill="none" xmlns="http://www.w3.org/2000/svg">
<g filter="url(#filter0_d_76_209)">
<circle cx="58" cy="42.9268" r="25" fill="#463FC4"/>
<circle cx="58" cy="42.9268" r="26.5" stroke="#8189E5" stroke-width="3"/>
</g>
<path d="M53.9767 38.0625C53.6867 38.0625 53.441 38.1641 53.2396 38.3671C53.0382 38.5701 52.9375 38.8166 52.9375 39.1067C52.9375 39.3967 53.039 39.6424 53.242 39.8438C53.4451 40.0452 53.6916 40.1459 53.9816 40.1459C54.2717 40.1459 54.5174 40.0444 54.7188 39.8413C54.9201 39.6383 55.0208 39.3918 55.0208 39.1017C55.0208 38.8117 54.9193 38.566 54.7163 38.3646C54.5133 38.1632 54.2667 38.0625 53.9767 38.0625ZM53.9767 46.6875C53.6867 46.6875 53.441 46.7891 53.2396 46.9921C53.0382 47.1951 52.9375 47.4416 52.9375 47.7317C52.9375 48.0217 53.039 48.2674 53.242 48.4688C53.4451 48.6702 53.6916 48.7709 53.9816 48.7709C54.2717 48.7709 54.5174 48.6694 54.7188 48.4663C54.9201 48.2633 55.0208 48.0168 55.0208 47.7267C55.0208 47.4367 54.9193 47.191 54.7163 46.9896C54.5133 46.7882 54.2667 46.6875 53.9767 46.6875ZM51.2083 35.5209H64.7708C64.9931 35.5209 65.1701 35.5868 65.3021 35.7188C65.434 35.8507 65.5 36.03 65.5 36.2566V41.8542C65.5 42.0962 65.434 42.2991 65.3021 42.4628C65.1701 42.6265 64.9931 42.7084 64.7708 42.7084H51.2083C51 42.7084 50.8299 42.6265 50.6979 42.4628C50.566 42.2991 50.5 42.0962 50.5 41.8542V36.2566C50.5 36.03 50.566 35.8507 50.6979 35.7188C50.8299 35.5868 51 35.5209 51.2083 35.5209ZM51.2083 44.125H64.6875C64.8958 44.125 65.0833 44.2118 65.25 44.3855C65.4167 44.5591 65.5 44.7572 65.5 44.9798V50.4792C65.5 50.757 65.4167 50.9688 65.25 51.1146C65.0833 51.2605 64.8958 51.3334 64.6875 51.3334H51.3125C51.0903 51.3334 50.8993 51.2605 50.7396 51.1146C50.5799 50.9688 50.5 50.757 50.5 50.4792V44.9798C50.5 44.7572 50.566 44.5591 50.6979 44.3855C50.8299 44.2118 51 44.125 51.2083 44.125Z" fill="#8189E5"/>
<defs>
<filter id="filter0_d_76_209" x="0" y="0.926758" width="116" height="116" filterUnits="userSpaceOnUse" color-interpolation-filters="sRGB">
<feFlood flood-opacity="0" result="BackgroundImageFix"/>
<feColorMatrix in="SourceAlpha" type="matrix" values="0 0 0 0 0 0 0 0 0 0 0 0 0 0 0 0 0 0 127 0" result="hardAlpha"/>
<feOffset dy="16"/>
<feGaussianBlur stdDeviation="15"/>
<feColorMatrix type="matrix" values="0 0 0 0 0.0526317 0 0 0 0 0 0 0 0 0 1 0 0 0 0.4 0"/>
<feBlend mode="normal" in2="BackgroundImageFix" result="effect1_dropShadow_76_209"/>
<feBlend mode="normal" in="SourceGraphic" in2="effect1_dropShadow_76_209" result="shape"/>
</filter>
</defs>
</svg>
