<svg width="116" height="116" viewBox="0 0 116 116" fill="none" xmlns="http://www.w3.org/2000/svg">
<g filter="url(#filter0_d_76_477)">
<circle cx="58" cy="42" r="25" fill="#087E74"/>
<circle cx="58" cy="42" r="26.5" stroke="#92F3E0" stroke-width="3"/>
</g>
<path d="M58 50.6667L55.4792 48.1458H51.75C51.4167 48.1458 51.125 48.0208 50.875 47.7708C50.625 47.5208 50.5 47.2292 50.5 46.8958V34.3958C50.5 34.0486 50.625 33.7535 50.875 33.5104C51.125 33.2674 51.4167 33.1458 51.75 33.1458H64.25C64.5833 33.1458 64.875 33.2674 65.125 33.5104C65.375 33.7535 65.5 34.0486 65.5 34.3958V46.8958C65.5 47.2292 65.375 47.5208 65.125 47.7708C64.875 48.0208 64.5833 48.1458 64.25 48.1458H60.5208L58 50.6667ZM58.0417 41.875C58.8472 41.875 59.5278 41.5972 60.0833 41.0417C60.6389 40.4861 60.9167 39.8056 60.9167 39C60.9167 38.1945 60.6389 37.5139 60.0833 36.9583C59.5278 36.4028 58.8472 36.125 58.0417 36.125C57.2361 36.125 56.5556 36.4028 56 36.9583C55.4444 37.5139 55.1667 38.1945 55.1667 39C55.1667 39.8056 55.4444 40.4861 56 41.0417C56.5556 41.5972 57.2361 41.875 58.0417 41.875ZM58 48.8125L59.9167 46.8958H64.25V46.1042C63.4167 45.3403 62.4722 44.7188 61.4167 44.2396C60.3611 43.7604 59.2222 43.5208 58 43.5208C56.7778 43.5208 55.6389 43.7604 54.5833 44.2396C53.5278 44.7188 52.5833 45.3403 51.75 46.1042V46.8958H56.0833L58 48.8125Z" fill="#92F3E0"/>
<defs>
<filter id="filter0_d_76_477" x="0" y="0" width="116" height="116" filterUnits="userSpaceOnUse" color-interpolation-filters="sRGB">
<feFlood flood-opacity="0" result="BackgroundImageFix"/>
<feColorMatrix in="SourceAlpha" type="matrix" values="0 0 0 0 0 0 0 0 0 0 0 0 0 0 0 0 0 0 127 0" result="hardAlpha"/>
<feOffset dy="16"/>
<feGaussianBlur stdDeviation="15"/>
<feColorMatrix type="matrix" values="0 0 0 0 0 0 0 0 0 1 0 0 0 0 0.804124 0 0 0 0.4 0"/>
<feBlend mode="normal" in2="BackgroundImageFix" result="effect1_dropShadow_76_477"/>
<feBlend mode="normal" in="SourceGraphic" in2="effect1_dropShadow_76_477" result="shape"/>
</filter>
</defs>
</svg>
