<svg width="116" height="117" viewBox="0 0 116 117" fill="none" xmlns="http://www.w3.org/2000/svg">
<g filter="url(#filter0_d_76_755)">
<circle cx="58" cy="42.2498" r="25" fill="#B55805"/>
<circle cx="58" cy="42.2498" r="26.5" stroke="#F5DC7A" stroke-width="3"/>
</g>
<path d="M50.9166 50.8334C50.5833 50.8334 50.2916 50.7084 50.0416 50.4584C49.7916 50.2084 49.6666 49.9167 49.6666 49.5834V40.4167C49.6666 40.0834 49.7916 39.7917 50.0416 39.5417C50.2916 39.2917 50.5833 39.1667 50.9166 39.1667H65.0833C65.4166 39.1667 65.7083 39.2917 65.9583 39.5417C66.2083 39.7917 66.3333 40.0834 66.3333 40.4167V49.5834C66.3333 49.9167 66.2083 50.2084 65.9583 50.4584C65.7083 50.7084 65.4166 50.8334 65.0833 50.8334H50.9166ZM56.4791 48.1042L61.0833 45L56.4791 41.9167V48.1042ZM51.1041 37.9167V36.6667H64.8958V37.9167H51.1041ZM53.8333 35.4167V34.1667H62.1666V35.4167H53.8333Z" fill="#F5DC7A"/>
<defs>
<filter id="filter0_d_76_755" x="0" y="0.249756" width="116" height="116" filterUnits="userSpaceOnUse" color-interpolation-filters="sRGB">
<feFlood flood-opacity="0" result="BackgroundImageFix"/>
<feColorMatrix in="SourceAlpha" type="matrix" values="0 0 0 0 0 0 0 0 0 0 0 0 0 0 0 0 0 0 127 0" result="hardAlpha"/>
<feOffset dy="16"/>
<feGaussianBlur stdDeviation="15"/>
<feColorMatrix type="matrix" values="0 0 0 0 0.709804 0 0 0 0 0.345098 0 0 0 0 0.0196078 0 0 0 0.4 0"/>
<feBlend mode="normal" in2="BackgroundImageFix" result="effect1_dropShadow_76_755"/>
<feBlend mode="normal" in="SourceGraphic" in2="effect1_dropShadow_76_755" result="shape"/>
</filter>
</defs>
</svg>
