<svg width="40" height="40" viewBox="0 0 40 40" fill="none" xmlns="http://www.w3.org/2000/svg">
<circle cx="20" cy="20" r="18.5" fill="#B55805" stroke="#F5DC7A" stroke-width="3"/>
<path d="M14.3333 26.8668C14.0666 26.8668 13.8333 26.7668 13.6333 26.5668C13.4333 26.3668 13.3333 26.1334 13.3333 25.8668V18.5334C13.3333 18.2668 13.4333 18.0334 13.6333 17.8334C13.8333 17.6334 14.0666 17.5334 14.3333 17.5334H25.6666C25.9333 17.5334 26.1666 17.6334 26.3666 17.8334C26.5666 18.0334 26.6666 18.2668 26.6666 18.5334V25.8668C26.6666 26.1334 26.5666 26.3668 26.3666 26.5668C26.1666 26.7668 25.9333 26.8668 25.6666 26.8668H14.3333ZM18.7833 24.6834L22.4666 22.2001L18.7833 19.7334V24.6834ZM14.4833 16.5334V15.5334H25.5166V16.5334H14.4833ZM16.6666 14.5334V13.5334H23.3333V14.5334H16.6666Z" fill="#F5DC7A"/>
</svg>
