<svg width="40" height="40" viewBox="0 0 40 40" fill="none" xmlns="http://www.w3.org/2000/svg">
<circle cx="20" cy="20" r="18.5" fill="#087E74" stroke="#92F3E0" stroke-width="3"/>
<path d="M20 26.9334L17.9833 24.9167H15C14.7333 24.9167 14.5 24.8167 14.3 24.6167C14.1 24.4167 14 24.1834 14 23.9167V13.9167C14 13.639 14.1 13.4029 14.3 13.2084C14.5 13.014 14.7333 12.9167 15 12.9167H25C25.2667 12.9167 25.5 13.014 25.7 13.2084C25.9 13.4029 26 13.639 26 13.9167V23.9167C26 24.1834 25.9 24.4167 25.7 24.6167C25.5 24.8167 25.2667 24.9167 25 24.9167H22.0167L20 26.9334ZM20.0333 19.9001C20.6778 19.9001 21.2222 19.6779 21.6667 19.2334C22.1111 18.789 22.3333 18.2445 22.3333 17.6001C22.3333 16.9556 22.1111 16.4112 21.6667 15.9667C21.2222 15.5223 20.6778 15.3001 20.0333 15.3001C19.3889 15.3001 18.8444 15.5223 18.4 15.9667C17.9556 16.4112 17.7333 16.9556 17.7333 17.6001C17.7333 18.2445 17.9556 18.789 18.4 19.2334C18.8444 19.6779 19.3889 19.9001 20.0333 19.9001ZM20 25.4501L21.5333 23.9167H25V23.2834C24.3333 22.6723 23.5778 22.1751 22.7333 21.7917C21.8889 21.4084 20.9778 21.2167 20 21.2167C19.0222 21.2167 18.1111 21.4084 17.2667 21.7917C16.4222 22.1751 15.6667 22.6723 15 23.2834V23.9167H18.4667L20 25.4501Z" fill="#92F3E0"/>
</svg>
